<svg width="142" height="172" viewBox="0 0 142 172" fill="none" xmlns="http://www.w3.org/2000/svg">
<path fill-rule="evenodd" clip-rule="evenodd" d="M95.7999 72.9066C99.6128 79.881 97.8652 87.8088 93.1467 92.3366C90.2711 90.6685 58.0995 57.6231 52.5231 52.2532C48.599 48.472 45.5486 45.9618 45.0085 39.4481C44.1188 28.5018 52.6343 22.9413 60.8004 14.7276C63.8984 11.6137 68.2832 7.78486 70.7299 4.60742C72.7158 5.54477 93.3056 25.8645 95.0691 28.47C103.187 40.4966 92.4795 51.4588 83.4237 58.8623C85.4891 63.1677 92.7178 67.2825 95.7999 72.9066ZM71.6037 47.0739L80.7388 38.0977C79.6267 35.8258 73.0017 29.2326 70.6981 28.1999C67.2506 32.2035 63.247 34.9997 61.7536 38.3201C65.5189 40.6873 68.4262 45.6282 71.6037 47.0739Z" fill="#FF2E17"/>
<path fill-rule="evenodd" clip-rule="evenodd" d="M69.0777 78.7848C76.0363 85.7911 82.5819 92.3048 89.5881 99.2634C108.875 118.471 87.6499 128.258 70.9048 146.989C68.6647 145.638 49.2823 126.256 47.2646 123.523C36.5884 108.971 53.6354 98.2149 58.4333 92.2254C53.9054 83.6304 35.2697 77.6568 48.5673 58.9099C51.6177 60.5304 65.4872 75.1784 69.0777 78.7848ZM70.9842 123.444L80.2941 113.975L70.9524 104.157C68.8235 105.158 62.3892 111.671 61.1341 113.768C62.5163 116.009 68.6488 122.236 70.9842 123.444ZM113.435 69.8562C111.528 67.9497 110.13 66.5358 108.224 64.6452C104.602 61.0229 101.249 57.3689 97.5 54.0167C99.7559 50.6803 105.189 48.4085 111.179 49.1552C119.758 50.2196 133.23 65.7732 139.855 72.6047C141.428 74.2252 141.11 73.6215 142 75.5597C139.919 78.5147 126.971 90.8909 123.317 94.6085C115.246 102.822 104.808 105.126 97.5158 97.0869L118.566 75.7345C117.311 73.1449 115.357 71.7786 113.435 69.8562Z" fill="white"/>
<path d="M23.4336 75.7345L44.4842 97.0869C37.192 105.126 26.7541 102.822 18.6834 94.6085C15.0134 90.8909 2.06534 78.5147 0 75.5597C0.889684 73.6215 0.57194 74.2252 2.14477 72.6047C8.75385 65.7732 22.2262 50.2196 30.8212 49.1552C36.8107 48.4085 42.2282 50.6803 44.5001 54.0167C40.7507 57.3689 37.3985 61.0229 33.7603 64.6452C31.8697 66.5358 30.4717 67.9497 28.5652 69.8562C26.6429 71.7786 24.6887 73.1449 23.4336 75.7345Z" fill="#FF2E17"/>
<path fill-rule="evenodd" clip-rule="evenodd" d="M45.2467 160.349C45.2467 161.239 45.0879 162.023 44.7701 162.701C44.463 163.389 44.0075 163.961 43.4038 164.417C42.8001 164.893 42.064 165.253 41.1955 165.497C40.3164 165.74 39.2837 165.862 38.0975 165.862H36.6041V170.867C36.6041 170.962 36.5723 171.026 36.5247 171.089C36.4611 171.153 36.3605 171.206 36.2228 171.248C36.0851 171.29 35.8998 171.322 35.6667 171.343C35.4443 171.375 35.1425 171.375 34.793 171.375C34.4434 171.375 34.1522 171.365 33.9192 171.343C33.6756 171.322 33.4902 171.29 33.3631 171.248C33.2201 171.2 33.1248 171.153 33.0771 171.089C33.0136 171.026 32.9818 170.951 32.9818 170.867V156.727C32.9818 156.346 33.0983 156.06 33.3313 155.869C33.5537 155.668 33.8503 155.567 34.221 155.567H38.4311C38.8548 155.567 39.2573 155.583 39.6386 155.615C40.0198 155.647 40.4806 155.71 41.0207 155.806C41.5609 155.901 42.1011 156.06 42.6412 156.314C43.1973 156.568 43.6739 156.886 44.0552 157.267C44.4365 157.659 44.7331 158.109 44.9449 158.618C45.1461 159.137 45.2467 159.714 45.2467 160.349ZM41.4497 160.588C41.4497 160.037 41.3385 159.582 41.1161 159.221C40.8936 158.861 40.6183 158.597 40.2899 158.427C39.9616 158.258 39.6227 158.152 39.2731 158.109C38.913 158.067 38.5423 158.046 38.161 158.046H36.6041V163.384H38.2564C38.8283 163.384 39.3208 163.32 39.718 163.177C40.1152 163.05 40.4329 162.86 40.6871 162.605C40.9307 162.362 41.1214 162.065 41.2591 161.716C41.3861 161.366 41.4497 160.99 41.4497 160.588ZM62.9133 163.209C62.9133 164.655 62.7068 165.878 62.2778 166.911C61.8489 167.944 61.2293 168.77 60.419 169.421C59.6247 170.067 58.6502 170.544 57.4958 170.851C56.3519 171.158 54.9856 171.312 53.3969 171.312H49.1232C48.8267 171.312 48.5725 171.232 48.3606 171.073C48.1488 170.914 48.0429 170.655 48.0429 170.295V156.584C48.0429 156.224 48.1488 155.965 48.3606 155.806C48.5725 155.647 48.8267 155.567 49.1232 155.567H53.7146C55.3139 155.578 56.6696 155.747 57.7818 156.076C58.8939 156.404 59.8259 156.886 60.5779 157.522C61.3405 158.168 61.9177 158.967 62.3096 159.92C62.7068 160.858 62.9133 161.954 62.9133 163.209ZM59.148 163.32C59.148 162.574 59.0527 161.89 58.8462 161.239C58.6555 160.604 58.3378 160.053 57.893 159.587C57.4587 159.11 56.8974 158.745 56.2089 158.491C55.5258 158.221 54.6202 158.093 53.5081 158.093H51.6811V168.77H53.5716C54.5672 168.77 55.404 168.658 56.0818 168.436C56.765 168.198 57.3369 167.864 57.7818 167.403C58.2372 166.948 58.5814 166.381 58.8144 165.703C59.0368 165.015 59.148 164.221 59.148 163.32Z" fill="#FF2E17"/>
<path fill-rule="evenodd" clip-rule="evenodd" d="M76.481 170.057C76.481 170.29 76.4704 170.486 76.4493 170.645C76.4281 170.803 76.391 170.931 76.338 171.026C76.2957 171.121 76.2374 171.195 76.1633 171.248C76.0997 171.28 76.0203 171.312 75.9409 171.312H66.9646C66.668 171.312 66.4138 171.232 66.202 171.074C66.0008 170.915 65.9001 170.655 65.9001 170.295V156.584C65.9001 156.224 66.0008 155.965 66.202 155.806C66.4138 155.647 66.668 155.568 66.9646 155.568H75.9091C75.9832 155.568 76.0521 155.589 76.1156 155.631C76.1792 155.674 76.2374 155.748 76.2904 155.854C76.3328 155.949 76.3645 156.076 76.3857 156.235C76.4175 156.394 76.4334 156.595 76.4334 156.839C76.4334 157.072 76.4175 157.268 76.3857 157.426C76.3645 157.585 76.3328 157.712 76.2904 157.808C76.2374 157.903 76.1792 157.977 76.1156 158.03C76.0521 158.072 75.9832 158.094 75.9091 158.094H69.5224V161.922H74.8923C74.977 161.922 75.0565 161.944 75.1306 161.986C75.1942 162.034 75.2577 162.097 75.3054 162.193C75.3477 162.288 75.3795 162.415 75.4007 162.574C75.4219 162.733 75.4325 162.923 75.4325 163.146C75.4325 163.379 75.4219 163.575 75.4007 163.734C75.3795 163.882 75.3477 164.004 75.3054 164.099C75.2524 164.194 75.1942 164.263 75.1306 164.306C75.0565 164.348 74.977 164.369 74.8923 164.369H69.5224V168.802H75.9409C76.0256 168.791 76.0997 168.812 76.1633 168.865C76.2374 168.908 76.2957 168.976 76.338 169.072C76.391 169.167 76.4281 169.294 76.4493 169.453C76.4704 169.612 76.481 169.813 76.481 170.057ZM90.0487 166.593C90.0487 167.419 89.874 168.134 89.5244 168.77C89.159 169.389 88.6983 169.898 88.0946 170.327C87.4909 170.74 86.7918 171.052 85.9975 171.264C85.1925 171.476 84.3293 171.582 83.4079 171.582C82.7883 171.582 82.2322 171.534 81.692 171.439C81.1625 171.354 80.6964 171.248 80.294 171.121C79.8809 170.994 79.542 170.862 79.2772 170.724C79.0018 170.576 78.8006 170.449 78.6735 170.343C78.557 170.237 78.4722 170.083 78.4193 169.882C78.3769 169.691 78.3557 169.411 78.3557 169.04C78.3557 168.786 78.3663 168.574 78.3875 168.404C78.3981 168.235 78.4246 168.097 78.4669 167.991C78.5093 167.885 78.5676 167.811 78.6417 167.769C78.7052 167.716 78.7847 167.695 78.88 167.705C79.0071 167.695 79.1872 167.758 79.4202 167.896C79.6638 168.034 79.9656 168.182 80.3257 168.341C80.6964 168.51 81.1413 168.659 81.6603 168.786C82.1687 168.923 82.7618 168.992 83.4396 168.992C83.8845 168.992 84.2817 168.945 84.6312 168.849C84.9807 168.765 85.2773 168.637 85.5209 168.468C85.7645 168.299 85.9498 168.087 86.0769 167.833C86.2146 167.589 86.2834 167.314 86.2834 167.006C86.2834 166.646 86.1722 166.339 85.9498 166.085C85.7274 165.831 85.4414 165.608 85.076 165.402C84.7265 165.201 84.324 165.015 83.8686 164.846C83.4132 164.666 82.9471 164.48 82.4705 164.29C81.9939 164.099 81.5279 163.877 81.0724 163.622C80.617 163.379 80.2145 163.088 79.865 162.749C79.5049 162.399 79.2136 161.991 78.9912 161.525C78.7688 161.049 78.6576 160.482 78.6576 159.825C78.6576 159.073 78.8165 158.411 79.1342 157.839C79.4519 157.278 79.8809 156.807 80.4211 156.426C80.9612 156.044 81.5967 155.764 82.3275 155.583C83.0583 155.393 83.8368 155.298 84.663 155.298C85.0866 155.298 85.5103 155.329 85.9339 155.393C86.3576 155.446 86.7548 155.52 87.1255 155.615C87.4856 155.711 87.8086 155.822 88.0946 155.949C88.3806 156.065 88.5712 156.166 88.6665 156.251C88.7513 156.335 88.8148 156.404 88.8572 156.457C88.8889 156.51 88.9154 156.584 88.9366 156.68C88.9578 156.775 88.9737 156.892 88.9843 157.029C88.9949 157.178 89.0002 157.358 89.0002 157.569C89.0002 157.802 88.9949 157.998 88.9843 158.157C88.9631 158.316 88.9366 158.448 88.9048 158.554C88.8731 158.666 88.8254 158.745 88.7619 158.793C88.7089 158.835 88.6295 158.856 88.5235 158.856C88.4282 158.856 88.2694 158.803 88.0469 158.697C87.8245 158.581 87.5491 158.454 87.2208 158.316C86.903 158.189 86.5323 158.067 86.1087 157.951C85.685 157.845 85.219 157.792 84.7106 157.792C84.3081 157.792 83.9586 157.834 83.6621 157.919C83.3761 158.004 83.1325 158.12 82.9312 158.268C82.7406 158.427 82.5817 158.602 82.4864 158.809C82.3911 159.02 82.3434 159.243 82.3434 159.476C82.3434 159.825 82.4493 160.127 82.6612 160.381C82.8836 160.636 83.1748 160.863 83.535 161.065C83.9057 161.266 84.324 161.451 84.7901 161.621C85.2455 161.801 85.7115 161.986 86.1881 162.177C86.6753 162.367 87.1467 162.59 87.6021 162.844C88.0681 163.088 88.4812 163.384 88.8413 163.734C89.2014 164.073 89.4927 164.475 89.7151 164.941C89.9375 165.407 90.0487 165.958 90.0487 166.593ZM96.4672 170.867C96.4672 170.952 96.4354 171.026 96.3718 171.089C96.3083 171.153 96.2077 171.206 96.07 171.248C95.9429 171.28 95.7522 171.328 95.5139 171.344C95.2915 171.365 95.0002 171.375 94.6401 171.375C94.2906 171.375 93.994 171.365 93.7504 171.344C93.5174 171.322 93.3321 171.291 93.1944 171.248C93.0567 171.206 92.9561 171.153 92.8925 171.089C92.8396 171.026 92.8131 170.952 92.8131 170.867V156.012C92.8131 155.928 92.8396 155.854 92.8925 155.79C92.9561 155.726 93.062 155.674 93.2103 155.631C93.3533 155.583 93.528 155.568 93.7663 155.536C93.9993 155.515 94.2906 155.504 94.6401 155.504C95.0002 155.504 95.2915 155.515 95.5139 155.536C95.7522 155.568 95.9429 155.583 96.07 155.631C96.2077 155.674 96.3083 155.726 96.3718 155.79C96.4354 155.854 96.4672 155.928 96.4672 156.012V170.867ZM110.972 166.577C110.972 167.404 110.797 168.134 110.448 168.754C110.098 169.374 109.622 169.898 109.018 170.311C108.414 170.74 107.715 171.042 106.921 171.264C106.116 171.476 105.258 171.582 104.347 171.582C103.733 171.582 103.156 171.534 102.616 171.439C102.097 171.344 101.63 171.232 101.217 171.105C100.815 170.989 100.476 170.856 100.201 170.708C99.9306 170.565 99.7399 170.438 99.6128 170.343C99.4963 170.237 99.4116 170.083 99.3586 169.882C99.3057 169.681 99.2792 169.395 99.2792 169.024C99.2792 168.77 99.2898 168.563 99.311 168.404C99.3321 168.235 99.3639 168.092 99.4063 167.976C99.4487 167.88 99.5016 167.806 99.5652 167.753C99.6393 167.711 99.7187 167.69 99.8035 167.69C99.9412 167.69 100.127 167.758 100.36 167.896C100.593 168.034 100.894 168.182 101.265 168.341C101.636 168.5 102.075 168.648 102.584 168.786C103.103 168.923 103.696 168.992 104.363 168.992C104.808 168.992 105.205 168.945 105.555 168.849C105.904 168.754 106.206 168.622 106.46 168.452C106.699 168.277 106.889 168.071 107.016 167.833C107.143 167.578 107.207 167.298 107.207 166.991C107.207 166.641 107.096 166.339 106.873 166.085C106.651 165.82 106.365 165.592 106.015 165.402C105.655 165.201 105.247 165.01 104.792 164.83C104.347 164.66 103.881 164.48 103.394 164.29C102.917 164.088 102.451 163.866 101.996 163.622C101.551 163.379 101.149 163.082 100.788 162.733C100.428 162.394 100.142 161.986 99.9306 161.509C99.7081 161.043 99.5969 160.482 99.5969 159.825C99.5969 159.073 99.7558 158.411 100.074 157.839C100.391 157.268 100.815 156.796 101.345 156.426C101.901 156.044 102.52 155.758 103.267 155.568C103.998 155.388 104.771 155.298 105.586 155.298C106.01 155.298 106.434 155.324 106.857 155.377C107.281 155.441 107.678 155.52 108.049 155.615C108.42 155.711 108.748 155.816 109.034 155.933C109.309 156.06 109.495 156.166 109.59 156.251C109.685 156.325 109.749 156.388 109.781 156.441C109.812 156.505 109.839 156.584 109.86 156.68C109.881 156.764 109.897 156.881 109.908 157.029C109.918 157.167 109.924 157.342 109.924 157.554C109.924 157.787 109.918 157.982 109.908 158.141C109.897 158.311 109.871 158.448 109.828 158.554C109.797 158.66 109.754 158.734 109.701 158.777C109.638 158.83 109.553 158.856 109.447 158.856C109.352 158.856 109.193 158.798 108.97 158.681C108.748 158.576 108.478 158.454 108.16 158.316C107.832 158.178 107.456 158.057 107.032 157.951C106.608 157.834 106.142 157.781 105.634 157.792C105.242 157.781 104.898 157.824 104.601 157.919C104.305 158.004 104.056 158.12 103.855 158.268C103.664 158.411 103.521 158.586 103.426 158.809C103.32 159.02 103.267 159.243 103.267 159.476C103.267 159.825 103.378 160.127 103.601 160.381C103.812 160.636 104.104 160.863 104.474 161.065C104.834 161.255 105.247 161.441 105.714 161.621C106.169 161.79 106.64 161.975 107.127 162.177C107.604 162.367 108.075 162.584 108.541 162.828C108.997 163.082 109.405 163.379 109.765 163.718C110.125 164.067 110.416 164.475 110.639 164.941C110.861 165.407 110.972 165.953 110.972 166.577ZM136.9 12.8369C136.9 14.648 136.566 16.3321 135.899 17.9208C135.216 19.5095 134.295 20.8758 133.119 22.0356C131.959 23.1953 130.561 24.1168 128.972 24.7999C127.384 25.4672 125.684 25.8008 123.873 25.8008C121.998 25.8008 120.266 25.4778 118.677 24.8317C117.089 24.1803 115.738 23.2748 114.594 22.1309C113.451 21.0029 112.577 19.6525 111.925 18.0797C111.29 16.4909 110.972 14.7751 110.972 12.9004C110.972 11.0893 111.306 9.38934 111.973 7.8324C112.656 6.25956 113.578 4.87737 114.753 3.7335C115.929 2.55784 117.295 1.65227 118.884 0.985007C120.457 0.317744 122.157 0 124 0C125.874 0 127.606 0.317744 129.195 0.953233C130.784 1.60461 132.134 2.47841 133.262 3.62228C134.406 4.76616 135.296 6.11658 135.947 7.68941C136.582 9.26225 136.9 10.9781 136.9 12.8369ZM133.913 13.0275C133.913 11.4547 133.659 10.0407 133.167 8.76974C132.674 7.48288 131.975 6.38666 131.101 5.4652C130.212 4.55963 129.163 3.86059 127.956 3.36809C126.732 2.87559 125.414 2.63728 124 2.63728C122.475 2.63728 121.092 2.90736 119.869 3.43164C118.646 3.9718 117.581 4.68673 116.707 5.62407C115.828 6.54553 115.151 7.62057 114.674 8.84918C114.197 10.0725 113.959 11.3752 113.959 12.7574C113.959 14.3144 114.197 15.7125 114.706 16.9993C115.203 18.2809 115.892 19.3771 116.771 20.288C117.661 21.2094 118.709 21.9085 119.917 22.401C121.14 22.9094 122.459 23.1477 123.873 23.1477C125.382 23.1477 126.78 22.8776 128.019 22.3374C129.242 21.8131 130.307 21.0664 131.181 20.1609C132.055 19.2553 132.722 18.175 133.198 16.9517C133.675 15.7283 133.913 14.4097 133.913 13.0275ZM130.005 19.0964C130.005 19.1759 129.989 19.2712 129.957 19.3347C129.926 19.4195 129.841 19.4777 129.703 19.5095C129.576 19.5413 129.385 19.573 129.131 19.5889C128.898 19.6101 128.57 19.6207 128.146 19.6207C127.765 19.6207 127.479 19.6048 127.241 19.5889C127.002 19.573 126.812 19.5254 126.669 19.4777C126.526 19.4142 126.415 19.3347 126.335 19.2553C126.256 19.1441 126.208 19.017 126.16 18.8263L125.461 16.5704C125.191 15.7442 124.873 15.1882 124.524 14.8704C124.159 14.5527 123.603 14.3938 122.872 14.3938H121.982V19.0011C121.982 19.2394 121.887 19.4142 121.696 19.4936C121.505 19.573 121.076 19.6207 120.393 19.6207C119.694 19.6207 119.239 19.5783 119.027 19.4936C118.805 19.4142 118.693 19.2394 118.693 18.9852V7.11747C118.693 6.62497 118.805 6.25956 119.059 5.98948C119.297 5.70351 119.678 5.56052 120.155 5.56052H123.968C124.858 5.56052 125.62 5.63996 126.303 5.79883C126.986 5.94182 127.558 6.19601 128.019 6.52964C128.496 6.85798 128.861 7.27105 129.115 7.76885C129.354 8.26135 129.481 8.84918 129.481 9.54822C129.481 10.6127 129.179 11.4388 128.623 12.0266C128.035 12.6144 127.272 13.0275 126.287 13.2658C126.812 13.4406 127.32 13.7424 127.781 14.1555C128.242 14.5686 128.655 15.2041 128.972 16.0302L129.767 18.1432C129.926 18.6516 130.005 18.9693 130.005 19.0964ZM125.89 9.9454C125.89 9.6912 125.858 9.46878 125.795 9.24636C125.731 9.02394 125.588 8.8174 125.414 8.65853C125.223 8.49966 124.969 8.37256 124.667 8.27724C124.365 8.18192 123.968 8.15014 123.491 8.15014H121.982V11.8836H123.444C124.365 11.8836 125.001 11.693 125.366 11.3435C125.716 10.9781 125.89 10.5173 125.89 9.9454Z" fill="white"/>
</svg>
