<svg width="80" height="96" viewBox="0 0 80 96" fill="none" xmlns="http://www.w3.org/2000/svg">
<path fill-rule="evenodd" clip-rule="evenodd" d="M53.6 40.7911C55.7333 44.6933 54.7555 49.1289 52.1155 51.6622C50.5067 50.7289 32.5067 32.24 29.3867 29.2356C27.1911 27.12 25.4844 25.7156 25.1822 22.0711C24.6844 15.9467 29.4489 12.8356 34.0178 8.24001C35.7511 6.49779 38.2044 4.35557 39.5733 2.57779C40.6844 3.10223 52.2044 14.4711 53.1911 15.9289C57.7333 22.6578 51.7422 28.7911 46.6755 32.9333C47.8311 35.3422 51.8755 37.6445 53.6 40.7911ZM40.0622 26.3378L45.1733 21.3156C44.5511 20.0445 40.8444 16.3556 39.5555 15.7778C37.6267 18.0178 35.3867 19.5822 34.5511 21.44C36.6578 22.7645 38.2844 25.5289 40.0622 26.3378Z" fill="#FF2E17"/>
<path fill-rule="evenodd" clip-rule="evenodd" d="M38.649 44.08C42.5423 48 46.2045 51.6444 50.1245 55.5378C60.9156 66.2844 49.0401 71.76 39.6712 82.24C38.4179 81.4844 27.5734 70.64 26.4445 69.1111C20.4712 60.9689 30.009 54.9511 32.6934 51.6C30.1601 46.7911 19.7334 43.4489 27.1734 32.96C28.8801 33.8667 36.6401 42.0622 38.649 44.08ZM39.7156 69.0667L44.9245 63.7689L39.6978 58.2756C38.5067 58.8356 34.9067 62.48 34.2045 63.6533C34.9778 64.9067 38.409 68.3911 39.7156 69.0667ZM63.4667 39.0845C62.4001 38.0178 61.6179 37.2267 60.5512 36.1689C58.5245 34.1422 56.649 32.0978 54.5512 30.2222C55.8134 28.3556 58.8534 27.0845 62.2045 27.5022C67.0045 28.0978 74.5423 36.8 78.249 40.6222C79.129 41.5289 78.9512 41.1911 79.449 42.2756C78.2845 43.9289 71.0401 50.8533 68.9956 52.9333C64.4801 57.5289 58.6401 58.8178 54.5601 54.32L66.3379 42.3733C65.6356 40.9245 64.5423 40.16 63.4667 39.0845Z" fill="#2C2E35"/>
<path d="M13.1111 42.3733L24.8889 54.32C20.8089 58.8178 14.9689 57.5289 10.4533 52.9333C8.4 50.8533 1.15556 43.9289 0 42.2756C0.497778 41.1911 0.32 41.5289 1.2 40.6222C4.89778 36.8 12.4356 28.0978 17.2444 27.5022C20.5956 27.0845 23.6267 28.3556 24.8978 30.2222C22.8 32.0978 20.9244 34.1422 18.8889 36.1689C17.8311 37.2267 17.0489 38.0178 15.9822 39.0845C14.9067 40.16 13.8133 40.9245 13.1111 42.3733Z" fill="#FF2E17"/>
<path d="M10.7378 53.1289C10.3467 51.9556 10.56 52.2578 9.38667 51.7778C9.99112 53.2889 9.52001 52.4711 10.7378 53.1289ZM4.52445 46.9067C4.08001 45.7778 4.25778 46 3.17334 45.5556C3.76001 47.0934 3.28001 46.2756 4.52445 46.9067Z" fill="#D4464E"/>
<path fill-rule="evenodd" clip-rule="evenodd" d="M25.3155 89.7156C25.3155 90.2133 25.2266 90.6519 25.0489 91.0311C24.877 91.4163 24.6222 91.7363 24.2844 91.9911C23.9466 92.2578 23.5348 92.4593 23.0489 92.5956C22.557 92.7319 21.9792 92.8 21.3155 92.8H20.48V95.6C20.48 95.6533 20.4622 95.6889 20.4355 95.7245C20.4 95.76 20.3437 95.7896 20.2666 95.8133C20.1896 95.837 20.0859 95.8548 19.9555 95.8667C19.8311 95.8845 19.6622 95.8844 19.4666 95.8844C19.2711 95.8844 19.1081 95.8785 18.9778 95.8667C18.8415 95.8548 18.7378 95.837 18.6666 95.8133C18.5866 95.7867 18.5333 95.76 18.5066 95.7245C18.4711 95.6889 18.4533 95.6474 18.4533 95.6V87.6889C18.4533 87.4756 18.5185 87.3156 18.6489 87.2089C18.7733 87.0963 18.9392 87.04 19.1466 87.04H21.5022C21.7392 87.04 21.9644 87.0489 22.1778 87.0667C22.3911 87.0845 22.6489 87.12 22.9511 87.1733C23.2533 87.2267 23.5555 87.3156 23.8578 87.4578C24.1689 87.6 24.4355 87.7778 24.6489 87.9911C24.8622 88.2104 25.0281 88.4622 25.1466 88.7467C25.2592 89.037 25.3155 89.36 25.3155 89.7156ZM23.1911 89.8489C23.1911 89.5407 23.1289 89.2859 23.0044 89.0845C22.88 88.883 22.7259 88.7348 22.5422 88.64C22.3585 88.5452 22.1689 88.4859 21.9733 88.4622C21.7718 88.4385 21.5644 88.4267 21.3511 88.4267H20.48V91.4133H21.4044C21.7244 91.4133 22 91.3778 22.2222 91.2978C22.4444 91.2267 22.6222 91.12 22.7644 90.9778C22.9007 90.8415 23.0074 90.6756 23.0844 90.48C23.1555 90.2845 23.1911 90.0741 23.1911 89.8489ZM35.2 91.3156C35.2 92.1245 35.0844 92.8089 34.8444 93.3867C34.6044 93.9644 34.2578 94.4267 33.8044 94.7911C33.36 95.1526 32.8148 95.4193 32.1689 95.5911C31.5289 95.763 30.7644 95.8489 29.8755 95.8489H27.4844C27.3185 95.8489 27.1763 95.8045 27.0578 95.7156C26.9392 95.6267 26.88 95.4815 26.88 95.28V87.6089C26.88 87.4074 26.9392 87.2622 27.0578 87.1733C27.1763 87.0845 27.3185 87.04 27.4844 87.04H30.0533C30.9481 87.0459 31.7066 87.1408 32.3289 87.3245C32.9511 87.5082 33.4726 87.7778 33.8933 88.1333C34.32 88.4948 34.6429 88.9422 34.8622 89.4756C35.0844 90 35.2 90.6133 35.2 91.3156ZM33.0933 91.3778C33.0933 90.96 33.04 90.5778 32.9244 90.2133C32.8178 89.8578 32.64 89.5496 32.3911 89.2889C32.1481 89.0222 31.834 88.8178 31.4489 88.6756C31.0666 88.5244 30.56 88.4533 29.9378 88.4533H28.9155V94.4267H29.9733C30.5303 94.4267 30.9985 94.3644 31.3778 94.24C31.76 94.1067 32.08 93.92 32.3289 93.6622C32.5837 93.4074 32.7763 93.0904 32.9066 92.7111C33.0311 92.3259 33.0933 91.8815 33.0933 91.3778Z" fill="#FF2E17"/>
<path fill-rule="evenodd" clip-rule="evenodd" d="M42.7911 95.1467C42.7911 95.277 42.7852 95.3867 42.7733 95.4756C42.7615 95.5644 42.7407 95.6356 42.7111 95.6889C42.6874 95.7422 42.6548 95.7837 42.6133 95.8133C42.5778 95.8311 42.5333 95.8489 42.4889 95.8489H37.4667C37.3007 95.8489 37.1585 95.8045 37.04 95.7156C36.9274 95.6267 36.8711 95.4815 36.8711 95.28V87.6089C36.8711 87.4074 36.9274 87.2622 37.04 87.1733C37.1585 87.0844 37.3007 87.04 37.4667 87.04H42.4711C42.5126 87.04 42.5511 87.0518 42.5866 87.0756C42.6222 87.0993 42.6548 87.1407 42.6844 87.2C42.7081 87.2533 42.7259 87.3244 42.7378 87.4133C42.7555 87.5022 42.7644 87.6148 42.7644 87.7511C42.7644 87.8815 42.7555 87.9911 42.7378 88.08C42.7259 88.1689 42.7081 88.24 42.6844 88.2933C42.6548 88.3467 42.6222 88.3882 42.5866 88.4178C42.5511 88.4415 42.5126 88.4533 42.4711 88.4533H38.8978V90.5956H41.9022C41.9496 90.5956 41.9941 90.6074 42.0355 90.6311C42.0711 90.6578 42.1067 90.6933 42.1333 90.7467C42.157 90.8 42.1748 90.8711 42.1866 90.96C42.1985 91.0489 42.2044 91.1556 42.2044 91.28C42.2044 91.4104 42.1985 91.52 42.1866 91.6089C42.1748 91.6918 42.157 91.76 42.1333 91.8133C42.1037 91.8667 42.0711 91.9052 42.0355 91.9289C41.9941 91.9526 41.9496 91.9644 41.9022 91.9644H38.8978V94.4445H42.4889C42.5363 94.4385 42.5778 94.4504 42.6133 94.48C42.6548 94.5037 42.6874 94.5422 42.7111 94.5956C42.7407 94.6489 42.7615 94.72 42.7733 94.8089C42.7852 94.8978 42.7911 95.0104 42.7911 95.1467ZM50.3822 93.2089C50.3822 93.6711 50.2844 94.0711 50.0889 94.4267C49.8844 94.7733 49.6267 95.0578 49.2889 95.2978C48.9511 95.5289 48.56 95.7037 48.1155 95.8222C47.6652 95.9407 47.1822 96 46.6667 96C46.32 96 46.0089 95.9733 45.7067 95.92C45.4104 95.8726 45.1496 95.8133 44.9244 95.7422C44.6933 95.6711 44.5037 95.597 44.3555 95.52C44.2015 95.437 44.0889 95.3659 44.0178 95.3067C43.9526 95.2474 43.9052 95.1615 43.8755 95.0489C43.8518 94.9422 43.84 94.7852 43.84 94.5778C43.84 94.4356 43.8459 94.317 43.8578 94.2222C43.8637 94.1274 43.8785 94.0504 43.9022 93.9911C43.9259 93.9319 43.9585 93.8904 44 93.8667C44.0355 93.837 44.08 93.8252 44.1333 93.8311C44.2044 93.8252 44.3052 93.8607 44.4355 93.9378C44.5718 94.0148 44.7407 94.0978 44.9422 94.1867C45.1496 94.2815 45.3985 94.3644 45.6889 94.4356C45.9733 94.5126 46.3052 94.5511 46.6844 94.5511C46.9333 94.5511 47.1555 94.5245 47.3511 94.4711C47.5467 94.4237 47.7126 94.3526 47.8489 94.2578C47.9852 94.163 48.0889 94.0444 48.16 93.9022C48.237 93.7659 48.2755 93.6118 48.2755 93.44C48.2755 93.2385 48.2133 93.0667 48.0889 92.9244C47.9644 92.7822 47.8044 92.6578 47.6 92.5422C47.4044 92.4296 47.1792 92.3259 46.9244 92.2311C46.6696 92.1304 46.4089 92.0267 46.1422 91.92C45.8755 91.8133 45.6148 91.6889 45.36 91.5467C45.1052 91.4104 44.88 91.2474 44.6844 91.0578C44.4829 90.8622 44.32 90.6341 44.1955 90.3733C44.0711 90.1067 44.0089 89.7896 44.0089 89.4222C44.0089 89.0015 44.0978 88.6311 44.2755 88.3111C44.4533 87.997 44.6933 87.7333 44.9955 87.52C45.2978 87.3067 45.6533 87.1496 46.0622 87.0489C46.4711 86.9422 46.9067 86.8889 47.3689 86.8889C47.6059 86.8889 47.8429 86.9067 48.08 86.9422C48.317 86.9719 48.5392 87.0133 48.7467 87.0667C48.9481 87.12 49.1289 87.1822 49.2889 87.2533C49.4489 87.3185 49.5555 87.3748 49.6089 87.4222C49.6563 87.4696 49.6918 87.5081 49.7155 87.5378C49.7333 87.5674 49.7481 87.6089 49.76 87.6622C49.7718 87.7156 49.7807 87.7807 49.7866 87.8578C49.7926 87.9407 49.7955 88.0415 49.7955 88.16C49.7955 88.2904 49.7926 88.4 49.7866 88.4889C49.7748 88.5778 49.76 88.6519 49.7422 88.7111C49.7244 88.7733 49.6978 88.8178 49.6622 88.8444C49.6326 88.8681 49.5881 88.88 49.5289 88.88C49.4755 88.88 49.3867 88.8504 49.2622 88.7911C49.1378 88.7259 48.9837 88.6548 48.8 88.5778C48.6222 88.5067 48.4148 88.4385 48.1778 88.3733C47.9407 88.3141 47.68 88.2844 47.3955 88.2844C47.1704 88.2844 46.9748 88.3082 46.8089 88.3556C46.6489 88.403 46.5126 88.4682 46.4 88.5511C46.2933 88.64 46.2044 88.7378 46.1511 88.8533C46.0978 88.9719 46.0711 89.0963 46.0711 89.2267C46.0711 89.4222 46.1304 89.5911 46.2489 89.7333C46.3733 89.8756 46.5363 90.003 46.7378 90.1156C46.9452 90.2281 47.1792 90.3319 47.44 90.4267C47.6948 90.5274 47.9555 90.6311 48.2222 90.7378C48.4948 90.8444 48.7585 90.9689 49.0133 91.1111C49.2741 91.2474 49.5052 91.4133 49.7067 91.6089C49.9081 91.7985 50.0711 92.0237 50.1955 92.2844C50.32 92.5452 50.3822 92.8533 50.3822 93.2089ZM53.9733 95.6C53.9733 95.6474 53.9555 95.6889 53.92 95.7244C53.8844 95.76 53.8281 95.7896 53.7511 95.8133C53.68 95.8311 53.5733 95.8578 53.44 95.8667C53.3155 95.8785 53.1526 95.8844 52.9511 95.8844C52.7555 95.8844 52.5896 95.8785 52.4533 95.8667C52.3229 95.8548 52.2192 95.837 52.1422 95.8133C52.0652 95.7896 52.0089 95.76 51.9733 95.7244C51.9437 95.6889 51.9289 95.6474 51.9289 95.6V87.2889C51.9289 87.2415 51.9437 87.2 51.9733 87.1644C52.0089 87.1289 52.0681 87.0993 52.1511 87.0756C52.2311 87.0489 52.3289 87.04 52.4622 87.0222C52.5926 87.0104 52.7555 87.0044 52.9511 87.0044C53.1526 87.0044 53.3155 87.0104 53.44 87.0222C53.5733 87.04 53.68 87.0489 53.7511 87.0756C53.8281 87.0993 53.8844 87.1289 53.92 87.1644C53.9555 87.2 53.9733 87.2415 53.9733 87.2889V95.6ZM62.0889 93.2C62.0889 93.6622 61.9911 94.0711 61.7955 94.4178C61.6 94.7644 61.3333 95.0578 60.9955 95.2889C60.6578 95.5289 60.2667 95.6978 59.8222 95.8222C59.3718 95.9407 58.8918 96 58.3822 96C58.0385 96 57.7155 95.9733 57.4133 95.92C57.1229 95.8667 56.8622 95.8044 56.6311 95.7333C56.4059 95.6682 56.2163 95.5941 56.0622 95.5111C55.9111 95.4311 55.8044 95.36 55.7333 95.3067C55.6681 95.2474 55.6207 95.1615 55.5911 95.0489C55.5615 94.9363 55.5467 94.7763 55.5467 94.5689C55.5467 94.4267 55.5526 94.3111 55.5644 94.2222C55.5763 94.1274 55.5941 94.0474 55.6178 93.9822C55.6415 93.9289 55.6711 93.8874 55.7067 93.8578C55.7481 93.8341 55.7926 93.8222 55.84 93.8222C55.917 93.8222 56.0207 93.8607 56.1511 93.9378C56.2815 94.0148 56.4504 94.0978 56.6578 94.1867C56.8652 94.2756 57.1111 94.3585 57.3955 94.4356C57.6859 94.5126 58.0178 94.5511 58.3911 94.5511C58.64 94.5511 58.8622 94.5245 59.0578 94.4711C59.2533 94.4178 59.4222 94.3437 59.5644 94.2489C59.6978 94.1511 59.8044 94.0356 59.8755 93.9022C59.9466 93.76 59.9822 93.603 59.9822 93.4311C59.9822 93.2356 59.92 93.0667 59.7955 92.9244C59.6711 92.7763 59.5111 92.6489 59.3155 92.5422C59.1141 92.4296 58.8859 92.323 58.6311 92.2222C58.3822 92.1274 58.1215 92.0267 57.8489 91.92C57.5822 91.8074 57.3215 91.683 57.0667 91.5467C56.8178 91.4104 56.5926 91.2445 56.3911 91.0489C56.1896 90.8593 56.0296 90.6311 55.9111 90.3644C55.7867 90.1037 55.7244 89.7896 55.7244 89.4222C55.7244 89.0015 55.8133 88.6311 55.9911 88.3111C56.1689 87.9911 56.4059 87.7274 56.7022 87.52C57.0133 87.3067 57.36 87.1467 57.7778 87.04C58.1867 86.9393 58.6192 86.8889 59.0755 86.8889C59.3126 86.8889 59.5496 86.9037 59.7866 86.9333C60.0237 86.9689 60.2459 87.0133 60.4533 87.0667C60.6607 87.12 60.8444 87.1793 61.0044 87.2444C61.1585 87.3156 61.2622 87.3748 61.3155 87.4222C61.3689 87.4637 61.4044 87.4993 61.4222 87.5289C61.44 87.5644 61.4548 87.6089 61.4667 87.6622C61.4785 87.7096 61.4874 87.7748 61.4933 87.8578C61.4992 87.9348 61.5022 88.0326 61.5022 88.1511C61.5022 88.2815 61.4992 88.3911 61.4933 88.48C61.4874 88.5748 61.4726 88.6519 61.4489 88.7111C61.4311 88.7704 61.4074 88.8119 61.3778 88.8356C61.3422 88.8652 61.2948 88.88 61.2355 88.88C61.1822 88.88 61.0933 88.8474 60.9689 88.7822C60.8444 88.723 60.6933 88.6548 60.5155 88.5778C60.3318 88.5007 60.1215 88.4326 59.8844 88.3733C59.6474 88.3082 59.3867 88.2785 59.1022 88.2844C58.8829 88.2785 58.6904 88.3022 58.5244 88.3556C58.3585 88.403 58.2192 88.4682 58.1067 88.5511C58 88.6311 57.92 88.7289 57.8667 88.8533C57.8074 88.9719 57.7778 89.0963 57.7778 89.2267C57.7778 89.4222 57.84 89.5911 57.9644 89.7333C58.0829 89.8756 58.2459 90.003 58.4533 90.1156C58.6548 90.2222 58.8859 90.3259 59.1467 90.4267C59.4015 90.5215 59.6652 90.6252 59.9378 90.7378C60.2044 90.8444 60.4681 90.9659 60.7289 91.1022C60.9837 91.2444 61.2118 91.4104 61.4133 91.6C61.6148 91.7956 61.7778 92.0237 61.9022 92.2844C62.0267 92.5452 62.0889 92.8504 62.0889 93.2ZM76.5955 7.18222C76.5955 8.19556 76.4089 9.13778 76.0355 10.0267C75.6533 10.9156 75.1378 11.68 74.48 12.3289C73.8311 12.9778 73.0489 13.4933 72.16 13.8756C71.2711 14.2489 70.32 14.4356 69.3067 14.4356C68.2578 14.4356 67.2889 14.2548 66.4 13.8933C65.5111 13.5289 64.7555 13.0222 64.1155 12.3822C63.4755 11.7511 62.9867 10.9956 62.6222 10.1156C62.2667 9.22667 62.0889 8.26667 62.0889 7.21778C62.0889 6.20444 62.2755 5.25333 62.6489 4.38222C63.0311 3.50222 63.5466 2.72889 64.2044 2.08889C64.8622 1.43111 65.6266 0.924444 66.5155 0.551111C67.3955 0.177778 68.3467 0 69.3778 0C70.4267 0 71.3955 0.177778 72.2844 0.533333C73.1733 0.897778 73.9289 1.38667 74.56 2.02667C75.2 2.66667 75.6978 3.42222 76.0622 4.30222C76.4178 5.18222 76.5955 6.14222 76.5955 7.18222ZM74.9244 7.28889C74.9244 6.40889 74.7822 5.61778 74.5067 4.90667C74.2311 4.18667 73.84 3.57333 73.3511 3.05778C72.8533 2.55111 72.2667 2.16 71.5911 1.88444C70.9067 1.60889 70.1689 1.47556 69.3778 1.47556C68.5244 1.47556 67.7511 1.62667 67.0667 1.92C66.3822 2.22222 65.7866 2.62222 65.2978 3.14667C64.8059 3.66222 64.4266 4.2637 64.16 4.95111C63.8933 5.63556 63.76 6.36444 63.76 7.13778C63.76 8.00889 63.8933 8.79111 64.1778 9.51111C64.4563 10.2281 64.8415 10.8415 65.3333 11.3511C65.8311 11.8667 66.4178 12.2578 67.0933 12.5333C67.7778 12.8178 68.5155 12.9511 69.3067 12.9511C70.1511 12.9511 70.9333 12.8 71.6267 12.4978C72.3111 12.2044 72.9067 11.7867 73.3955 11.28C73.8844 10.7733 74.2578 10.1689 74.5244 9.48444C74.7911 8.8 74.9244 8.06222 74.9244 7.28889ZM72.7378 10.6844C72.7378 10.7289 72.7289 10.7822 72.7111 10.8178C72.6933 10.8652 72.6459 10.8978 72.5689 10.9156C72.4978 10.9333 72.3911 10.9511 72.2489 10.96C72.1185 10.9719 71.9348 10.9778 71.6978 10.9778C71.4844 10.9778 71.3244 10.9689 71.1911 10.96C71.0578 10.9511 70.9511 10.9244 70.8711 10.8978C70.7911 10.8622 70.7289 10.8178 70.6844 10.7733C70.64 10.7111 70.6133 10.64 70.5867 10.5333L70.1955 9.27111C70.0444 8.80889 69.8666 8.49778 69.6711 8.32C69.4667 8.14222 69.1555 8.05333 68.7467 8.05333H68.2489V10.6311C68.2489 10.7644 68.1955 10.8622 68.0889 10.9067C67.9822 10.9511 67.7422 10.9778 67.36 10.9778C66.9689 10.9778 66.7141 10.9541 66.5955 10.9067C66.4711 10.8622 66.4089 10.7644 66.4089 10.6222V3.98222C66.4089 3.70667 66.4711 3.50222 66.6133 3.35111C66.7467 3.19111 66.96 3.11111 67.2267 3.11111H69.36C69.8578 3.11111 70.2844 3.15556 70.6667 3.24444C71.0489 3.32444 71.3689 3.46667 71.6267 3.65333C71.8933 3.83704 72.0978 4.06815 72.24 4.34667C72.3733 4.62222 72.4444 4.95111 72.4444 5.34222C72.4444 5.93778 72.2755 6.4 71.9644 6.72889C71.6355 7.05778 71.2089 7.28889 70.6578 7.42222C70.9511 7.52 71.2355 7.68889 71.4933 7.92C71.7511 8.15111 71.9822 8.50667 72.16 8.96889L72.6044 10.1511C72.6933 10.4356 72.7378 10.6133 72.7378 10.6844ZM70.4355 5.56444C70.4355 5.42222 70.4178 5.29778 70.3822 5.17333C70.3466 5.04889 70.2667 4.93333 70.1689 4.84444C70.0622 4.75556 69.92 4.68444 69.7511 4.63111C69.5822 4.57778 69.36 4.56 69.0933 4.56H68.2489V6.64889H69.0667C69.5822 6.64889 69.9378 6.54222 70.1422 6.34667C70.3378 6.14222 70.4355 5.88444 70.4355 5.56444Z" fill="#2C2E35"/>
</svg>
